<svg xmlns="http://www.w3.org/2000/svg" version="1.1" xmlns:xlink="http://www.w3.org/1999/xlink" xmlns:svgjs="http://svgjs.dev/svgjs" width="2000" height="1864" viewBox="0 0 2000 1864"><g transform="matrix(1,0,0,1,-0.34515503975876527,0.7546558704452764)"><svg viewBox="0 0 265 247" data-background-color="#131313" preserveAspectRatio="xMidYMid meet" height="1864" width="2000" xmlns="http://www.w3.org/2000/svg" xmlns:xlink="http://www.w3.org/1999/xlink"><g id="tight-bounds" transform="matrix(1,0,0,1,0.04573304276803469,-0.09999999999999432)"><svg viewBox="0 0 264.90853391446393 247.2" height="247.2" width="264.90853391446393"><g><svg viewBox="0 0 368.72151241112044 344.07331663184414" height="247.2" width="264.90853391446393"><g><svg viewBox="0 0 368.72151241112044 344.07331663184414" height="344.07331663184414" width="368.72151241112044"><g id="textblocktransform"><svg viewBox="0 0 368.72151241112044 344.07331663184414" height="344.07331663184414" width="368.72151241112044" id="textblock"><g><svg viewBox="0 0 368.72151241112044 245.67230400000003" height="245.67230400000003" width="368.72151241112044"><g transform="matrix(1,0,0,1,0,0)"><svg width="368.72151241112044" viewBox="-0.65 -40.20263157894737 79.7 53.10263157894737" height="245.67230400000003" data-palette-color="#f4dcfe"><path d="M28.4 12.9L28.4 12.9Q22 12.9 16.68 11.2 11.35 9.5 7.48 6.38 3.6 3.25 1.48-1-0.65-5.25-0.65-10.4L-0.65-10.4Q-0.65-15.5 1.48-19.78 3.6-24.05 7.5-27.18 11.4-30.3 16.73-32.02 22.05-33.75 28.4-33.75L28.4-33.75Q31.7-33.75 34.73-33.18 37.75-32.6 40.23-31.53 42.7-30.45 44.48-28.98 46.25-27.5 47.15-25.7L47.15-25.7 46.65-25.55Q45.8-27.3 44.08-28.73 42.35-30.15 39.93-31.15 37.5-32.15 34.58-32.7 31.65-33.25 28.4-33.25L28.4-33.25Q22.15-33.25 16.93-31.58 11.7-29.9 7.88-26.85 4.05-23.8 1.95-19.63-0.15-15.45-0.15-10.4L-0.15-10.4Q-0.15-5.4 1.95-1.2 4.05 3 7.85 6.03 11.65 9.05 16.88 10.73 22.1 12.4 28.4 12.4L28.4 12.4Q33.45 12.4 37.8 11.1 42.15 9.8 45.43 7.5 48.7 5.2 50.53 2.13 52.35-0.95 52.35-4.5L52.35-4.5Q52.35-7.3 50.93-9.68 49.5-12.05 46.95-13.8 44.4-15.55 40.93-16.5 37.45-17.45 33.3-17.45L33.3-17.45Q29.45-17.45 26.25-16.5 23.05-15.55 21.15-13.95 19.25-12.35 19.25-10.4L19.25-10.4Q19.25-8.9 20.25-7.78 21.25-6.65 23.13-6.05 25-5.45 27.55-5.45L27.55-5.45Q30.65-5.45 33.38-6.3 36.1-7.15 38.2-8.65 40.3-10.15 41.5-12.13 42.7-14.1 42.7-16.3L42.7-16.3Q42.7-18.8 41.1-20.68 39.5-22.55 36.6-23.58 33.7-24.6 29.8-24.6L29.8-24.6Q25.8-24.6 22.25-23.48 18.7-22.35 16-20.35 13.3-18.35 11.75-15.73 10.2-13.1 10.2-10.15L10.2-10.15Q10.2-6.6 12.25-4.05 14.3-1.5 18.15-0.15 22 1.2 27.4 1.2L27.4 1.2Q31.7 1.2 35.63-0.35 39.55-1.9 43.13-4.5 46.7-7.1 49.9-10.4 53.1-13.7 55.95-17.23 58.8-20.75 61.3-24.13 63.8-27.5 65.92-30.28 68.05-33.05 69.85-34.8L69.85-34.8Q72.25-37.15 73.7-38.3 75.15-39.45 76.45-40.2L76.45-40.2 79.05-40.2Q77.75-39.75 76.15-38.85 74.55-37.95 73-36.77 71.45-35.6 70.25-34.4L70.25-34.4Q67.85-31.95 65.8-28.88 63.75-25.8 61.8-22.45 59.85-19.1 57.88-15.8 55.9-12.5 53.7-9.53 51.5-6.55 48.9-4.2L48.9-4.2Q44.75-0.35 39.43 1.68 34.1 3.7 28.15 3.7L28.15 3.7Q22.5 3.7 18.35 2 14.2 0.3 11.95-2.8 9.7-5.9 9.7-10.15L9.7-10.15Q9.7-13.25 11.28-15.95 12.85-18.65 15.63-20.73 18.4-22.8 22.03-23.95 25.65-25.1 29.8-25.1L29.8-25.1Q33.9-25.1 36.9-24.03 39.9-22.95 41.55-20.98 43.2-19 43.2-16.3L43.2-16.3Q43.2-13.95 41.98-11.9 40.75-9.85 38.6-8.28 36.45-6.7 33.63-5.83 30.8-4.95 27.55-4.95L27.55-4.95Q24.85-4.95 22.88-5.63 20.9-6.3 19.83-7.5 18.75-8.7 18.75-10.35L18.75-10.35Q18.75-12.45 20.73-14.2 22.7-15.95 26.03-16.98 29.35-18 33.35-18L33.35-18Q37.55-18 41.13-17 44.7-16 47.33-14.18 49.95-12.35 51.4-9.9 52.85-7.45 52.85-4.5L52.85-4.5Q52.85-0.85 51 2.33 49.15 5.5 45.8 7.88 42.45 10.25 38.02 11.58 33.6 12.9 28.4 12.9ZM55.3-15L55.3-15Q53.45-15 52.25-16.4 51.05-17.8 51.05-19.95L51.05-19.95Q51.05-22.1 52.2-24.43 53.35-26.75 55.35-29.03 57.35-31.3 59.93-33.33 62.5-35.35 65.4-36.9 68.3-38.45 71.23-39.35 74.15-40.25 76.85-40.2L76.85-40.2 76.85-39.7Q74.25-39.75 71.38-38.88 68.5-38 65.65-36.48 62.8-34.95 60.28-32.98 57.75-31 55.78-28.78 53.8-26.55 52.68-24.3 51.55-22.05 51.55-19.95L51.55-19.95Q51.55-18 52.63-16.75 53.7-15.5 55.3-15.5L55.3-15.5Q57.1-15.5 58.83-16.43 60.55-17.35 61.95-18.88 63.35-20.4 64.17-22.33 65-24.25 65-26.2L65-26.2Q65-29.15 63.68-31.6 62.35-34.05 59.93-35.83 57.5-37.6 54.15-38.58 50.8-39.55 46.75-39.55L46.75-39.55Q43.75-39.55 40.93-38.85 38.1-38.15 35.68-36.88 33.25-35.6 31.5-33.88 29.75-32.15 28.85-30.1L28.85-30.1 28.35-30.25Q29.25-32.35 31.1-34.13 32.95-35.9 35.43-37.23 37.9-38.55 40.8-39.3 43.7-40.05 46.75-40.05L46.75-40.05Q50.85-40.1 54.28-39.1 57.7-38.1 60.23-36.25 62.75-34.4 64.13-31.85 65.5-29.3 65.5-26.2L65.5-26.2Q65.5-24.1 64.63-22.13 63.75-20.15 62.3-18.53 60.85-16.9 59.03-15.95 57.2-15 55.3-15Z" opacity="1" transform="matrix(1,0,0,1,0,0)" fill="#f4dcfe" class="wordmark-text-0" data-fill-palette-color="primary" id="text-0"></path></svg></g></svg></g><g transform="matrix(1,0,0,1,70.425808870524,303.66963883910404)"><svg viewBox="0 0 227.86989467007245 40.40367779274011" height="40.40367779274011" width="227.86989467007245"><g transform="matrix(1,0,0,1,0,0)"><svg width="227.86989467007245" viewBox="4 -35 199.63 35.4" height="40.40367779274011" data-palette-color="#f4dcfe"><path d="M4 0L4-35 27-35 27-31.7 7.7-31.7 7.7-18.9 25.15-18.9 25.15-15.6 7.7-15.6 7.7 0 4 0ZM30.6 0L30.6-24.95 34.1-24.95 34.1-21.1Q35.1-22.85 37.12-23.95 39.15-25.05 41.35-25.05L41.35-25.05 43.55-25.05 43.55-21.8 41.35-21.8Q38.15-21.8 36.17-19.78 34.2-17.75 34.2-14.4L34.2-14.4 34.2 0 30.6 0ZM55.85 0.4Q51.65 0.4 49.1-2.2 46.55-4.8 46.55-9.05L46.55-9.05 46.55-15.9Q46.55-20.15 49.12-22.75 51.7-25.35 55.95-25.35L55.95-25.35 60.05-25.35Q64.3-25.35 66.87-22.75 69.45-20.15 69.45-15.9L69.45-15.9 69.45-9.05Q69.45-4.8 66.84-2.2 64.25 0.4 59.95 0.4L59.95 0.4 55.85 0.4ZM55.85-2.8L59.95-2.8Q62.65-2.8 64.25-4.53 65.84-6.25 65.84-9.05L65.84-9.05 65.84-15.9Q65.84-18.7 64.25-20.43 62.65-22.15 60.05-22.15L60.05-22.15 55.95-22.15Q53.35-22.15 51.75-20.43 50.15-18.7 50.15-15.9L50.15-15.9 50.15-9.05Q50.15-6.2 51.7-4.5 53.25-2.8 55.85-2.8L55.85-2.8ZM76.04 0L76.04-24.95 79.54-24.95 79.54-21.25Q80.69-23.05 82.54-24.2 84.39-25.35 86.24-25.35L86.24-25.35 89.64-25.35Q93.09-25.35 95.22-23 97.34-20.65 97.34-16.85L97.34-16.85 97.34 0 93.74 0 93.74-16.95Q93.74-19.25 92.59-20.7 91.44-22.15 89.54-22.15L89.54-22.15 86.34-22.15Q83.99-22.15 82.07-20.3 80.14-18.45 79.64-15.55L79.64-15.55 79.64 0 76.04 0ZM114.44 0Q110.49 0 108.77-1.7 107.04-3.4 107.04-7.3L107.04-7.3 107.04-21.75 102.64-21.75 102.64-24.95 107.04-24.95 107.04-32.5 110.64-32.5 110.64-24.95 117.14-24.95 117.14-21.75 110.64-21.75 110.64-7.3Q110.64-5.1 111.52-4.15 112.39-3.2 114.44-3.2L114.44-3.2 117.14-3.2 117.14 0 114.44 0ZM127.19 0Q125.64 0 124.79-0.88 123.94-1.75 123.94-3.3L123.94-3.3 123.94-35 147.44-35 147.44-31.8 127.64-31.8 127.64-19.5 145.94-19.5 145.94-16.3 127.64-16.3 127.64-3.2 147.44-3.2 147.44 0 127.19 0ZM153.74 0L153.74-24.95 157.24-24.95 157.24-21.25Q158.38-23.05 160.24-24.2 162.09-25.35 163.94-25.35L163.94-25.35 167.34-25.35Q170.78-25.35 172.91-23 175.03-20.65 175.03-16.85L175.03-16.85 175.03 0 171.44 0 171.44-16.95Q171.44-19.25 170.28-20.7 169.13-22.15 167.24-22.15L167.24-22.15 164.03-22.15Q161.69-22.15 159.76-20.3 157.84-18.45 157.34-15.55L157.34-15.55 157.34 0 153.74 0ZM190.08 0.4Q187.53 0.4 185.53-0.8 183.53-2 182.43-4.15 181.33-6.3 181.33-9.15L181.33-9.15 181.33-15.15Q181.33-18.15 182.48-20.48 183.63-22.8 185.73-24.08 187.83-25.35 190.53-25.35L190.53-25.35 194.23-25.35Q195.93-25.35 197.51-24.55 199.08-23.75 200.03-22.35L200.03-22.35 200.03-35 203.63-35 203.63 0 200.13 0 200.13-3.7Q198.98-1.85 197.13-0.73 195.28 0.4 193.53 0.4L193.53 0.4 190.08 0.4ZM190.18-2.8L193.43-2.8Q195.03-2.8 196.53-3.83 198.03-4.85 198.98-6.5 199.93-8.15 200.03-9.9L200.03-9.9 200.03-16.2Q199.68-18.85 198.06-20.5 196.43-22.15 194.13-22.15L194.13-22.15 190.63-22.15Q188.08-22.15 186.51-20.23 184.93-18.3 184.93-15.15L184.93-15.15 184.93-9.15Q184.93-6.35 186.41-4.58 187.88-2.8 190.18-2.8L190.18-2.8Z" opacity="1" transform="matrix(1,0,0,1,0,0)" fill="#f4dcfe" class="slogan-text-1" data-fill-palette-color="secondary" id="text-1"></path></svg></g></svg></g></svg></g></svg></g><g></g></svg></g><defs></defs></svg><rect width="264.90853391446393" height="247.2" fill="none" stroke="none" visibility="hidden"></rect></g></svg></g></svg>